<?xml version="1.0" encoding="utf-8"?>
<!-- Generator: Adobe Illustrator 19.0.0, SVG Export Plug-In . SVG Version: 6.00 Build 0)  -->
<svg version="1.1" id="Layer_1" xmlns="http://www.w3.org/2000/svg" xmlns:xlink="http://www.w3.org/1999/xlink" x="0px" y="0px"
	 viewBox="0 0 960 560" style="enable-background:new 0 0 960 560;" xml:space="preserve">
<style type="text/css">
	.st0{fill:#FCEE21;}
	.st1{fill:#009900;}
	.st2{fill:#3FA9F5;}
	.st3{fill:#0000FF;}
	.st4{fill:#FF0000;}
	.st5{fill:#FF7BAC;}
	.st6{fill:#FF6600;}
	.st7{fill:#006600;}
	.st8{fill:#C1272D;}
	.st9{fill:#2E3192;}
	.st10{fill:#662D91;}
</style>
<g id="XMLID_1_">
	<polygon id="XMLID_2_" class="st0" points="173.6,336.3 138.6,406 209.7,406 	"/>
	<polygon id="XMLID_3_" class="st1" points="209.7,406.7 244.7,337 173.6,337 	"/>
	<polygon id="XMLID_7_" class="st2" points="208.6,267.3 173.6,337 244.7,337 	"/>
	<polygon id="XMLID_8_" class="st3" points="244.7,336.7 279.7,267 208.6,267 	"/>
	<polygon id="XMLID_9_" class="st0" points="386.6,336.3 351.6,406 422.7,406 	"/>
	<polygon id="XMLID_10_" class="st4" points="351.7,406.7 386.7,337 315.6,337 	"/>
	<polygon id="XMLID_11_" class="st5" points="350.6,267.3 315.6,337 386.7,337 	"/>
	<polygon id="XMLID_12_" class="st6" points="315.7,336.7 350.7,267 279.6,267 	"/>
	<polygon id="XMLID_13_" class="st7" points="243.6,197.3 208.6,267 279.7,267 	"/>
	<polygon id="XMLID_14_" class="st8" points="314.6,197.3 279.6,267 350.7,267 	"/>
	<polygon id="XMLID_15_" class="st9" points="279.7,266.7 314.7,197 243.6,197 	"/>
	<polygon id="XMLID_16_" class="st10" points="278.6,127.3 243.6,197 314.7,197 	"/>
	<polygon id="XMLID_20_" class="st0" points="455.6,336.3 420.6,406 491.7,406 	"/>
	<polygon id="XMLID_21_" class="st4" points="492.7,406.7 527.7,337 456.6,337 	"/>
	<polygon id="XMLID_22_" class="st5" points="527.6,337.3 492.6,407 563.7,407 	"/>
	<polygon id="XMLID_23_" class="st6" points="563.7,406.7 598.7,337 527.6,337 	"/>
	<polygon id="XMLID_24_" class="st8" points="562.6,267.3 527.6,337 598.7,337 	"/>
	<polygon id="XMLID_25_" class="st0" points="598.7,336.7 633.7,267 562.6,267 	"/>
	<polygon id="XMLID_26_" class="st1" points="562.7,266.7 597.7,197 526.6,197 	"/>
	<polygon id="XMLID_27_" class="st2" points="526.6,197.3 491.6,267 562.7,267 	"/>
	<polygon id="XMLID_29_" class="st7" points="597.7,196.7 632.7,127 561.6,127 	"/>
	<polygon id="XMLID_30_" class="st9" points="632.6,127.3 597.6,197 668.7,197 	"/>
	<polygon id="XMLID_28_" class="st3" points="561.6,127.3 526.6,197 597.7,197 	"/>
	<polygon id="XMLID_31_" class="st10" points="668.7,196.7 703.7,127 632.6,127 	"/>
</g>
</svg>
