<?xml version="1.0" encoding="utf-8"?>
<!-- Generator: Adobe Illustrator 19.0.0, SVG Export Plug-In . SVG Version: 6.00 Build 0)  -->
<svg version="1.1" id="Layer_1" xmlns="http://www.w3.org/2000/svg" xmlns:xlink="http://www.w3.org/1999/xlink" x="0px" y="0px"
	 viewBox="0 0 960 560" style="enable-background:new 0 0 960 560;" xml:space="preserve">
<style type="text/css">
	.st0{fill:#068894;}
	.st1{fill:#E6E6E6;}
	.st2{fill:#FFFFFF;}
</style>
<circle id="XMLID_45_" class="st0" cx="490.7" cy="272.9" r="254"/>
<g id="XMLID_63_">
	<g id="XMLID_65_">
		<path id="XMLID_4_" class="st1" d="M518.6,141.3l-12.1-3.3c-1.6-0.5-3.1-0.4-4.6,0.5c-1.5,0.8-2.5,2.1-3,3.8L426.2,394
			c-0.5,1.7-0.4,3.3,0.5,4.8c0.8,1.5,2.1,2.5,3.8,3l12.1,3.3c1.6,0.5,3.1,0.4,4.6-0.5c1.5-0.8,2.5-2.1,3-3.8l72.7-251.7
			c0.5-1.7,0.4-3.3-0.5-4.8C521.5,142.8,520.2,141.8,518.6,141.3z"/>
		<path id="XMLID_5_" class="st1" d="M409.6,190.5c0-1.7-0.7-3.2-2-4.5l-9.7-9.7c-1.3-1.3-2.8-2-4.5-2c-1.7,0-3.2,0.7-4.5,2
			l-90.8,90.8c-1.3,1.3-2,2.8-2,4.5s0.7,3.2,2,4.5l90.8,90.8c1.3,1.3,2.8,1.9,4.5,1.9c1.7,0,3.2-0.6,4.5-1.9l9.7-9.7
			c1.3-1.3,2-2.8,2-4.5c0-1.7-0.7-3.2-2-4.5L331,271.5l76.6-76.6C408.9,193.6,409.6,192.1,409.6,190.5z"/>
		<path id="XMLID_6_" class="st1" d="M650.9,267.1l-90.8-90.8c-1.3-1.3-2.8-2-4.5-2c-1.7,0-3.2,0.7-4.5,2l-9.7,9.7
			c-1.3,1.3-1.9,2.8-1.9,4.5s0.6,3.2,1.9,4.5l76.6,76.6l-76.6,76.6c-1.3,1.3-1.9,2.8-1.9,4.5c0,1.7,0.6,3.2,1.9,4.5l9.7,9.7
			c1.3,1.3,2.8,1.9,4.5,1.9c1.7,0,3.2-0.6,4.5-1.9l90.8-90.8c1.3-1.3,1.9-2.8,1.9-4.5C652.9,269.9,652.2,268.4,650.9,267.1z"/>
	</g>
</g>
<g id="XMLID_59_">
	<g id="XMLID_66_">
		<path id="XMLID_69_" class="st2" d="M524.7,144.3l-12.1-3.3c-1.6-0.5-3.1-0.4-4.6,0.5c-1.5,0.8-2.5,2.1-3,3.8l-72.7,251.7
			c-0.5,1.7-0.4,3.3,0.5,4.8c0.8,1.5,2.1,2.5,3.8,3l12.1,3.3c1.6,0.5,3.1,0.4,4.6-0.5c1.5-0.8,2.5-2.1,3-3.8L529,152.1
			c0.5-1.7,0.4-3.3-0.5-4.8C527.7,145.8,526.4,144.8,524.7,144.3z"/>
		<path id="XMLID_68_" class="st2" d="M415.8,193.4c0-1.7-0.7-3.2-2-4.5l-9.7-9.7c-1.3-1.3-2.8-2-4.5-2s-3.2,0.7-4.5,2L304.3,270
			c-1.3,1.3-2,2.8-2,4.5c0,1.7,0.7,3.2,2,4.5l90.8,90.8c1.3,1.3,2.8,1.9,4.5,1.9c1.7,0,3.2-0.6,4.5-1.9l9.7-9.7c1.3-1.3,2-2.8,2-4.5
			c0-1.7-0.7-3.2-2-4.5l-76.6-76.6l76.6-76.6C415.1,196.6,415.8,195.1,415.8,193.4z"/>
		<path id="XMLID_67_" class="st2" d="M657.1,270l-90.8-90.8c-1.3-1.3-2.8-2-4.5-2c-1.7,0-3.2,0.7-4.5,2l-9.7,9.7
			c-1.3,1.3-1.9,2.8-1.9,4.5s0.6,3.2,1.9,4.5l76.6,76.6l-76.6,76.6c-1.3,1.3-1.9,2.8-1.9,4.5c0,1.7,0.6,3.2,1.9,4.5l9.7,9.7
			c1.3,1.3,2.8,1.9,4.5,1.9c1.7,0,3.2-0.6,4.5-1.9l90.8-90.8c1.3-1.3,1.9-2.8,1.9-4.5C659,272.8,658.4,271.3,657.1,270z"/>
	</g>
</g>
</svg>
