<?xml version="1.0" encoding="utf-8"?>
<!-- Generator: Adobe Illustrator 19.0.0, SVG Export Plug-In . SVG Version: 6.00 Build 0)  -->
<svg version="1.1" id="Layer_1" xmlns="http://www.w3.org/2000/svg" xmlns:xlink="http://www.w3.org/1999/xlink" x="0px" y="0px"
	 viewBox="0 0 960 560" style="enable-background:new 0 0 960 560;" xml:space="preserve">
<style type="text/css">
	.st0{fill:#068894;}
	.st1{fill:#E6E6E6;}
	.st2{fill:#FFFFFF;}
</style>
<circle id="XMLID_46_" class="st0" cx="495.3" cy="282.4" r="251.5"/>
<g id="XMLID_28_">
	<g id="XMLID_23_">
		<path id="XMLID_27_" class="st1" d="M608.6,188.2c0,12.4-53.9,22.4-120.4,22.4s-120.4-10-120.4-22.4s53.9-22.4,120.4-22.4
			S608.6,175.9,608.6,188.2z"/>
		<path id="XMLID_26_" class="st1" d="M488.2,225.5c-66.2,0-120.4-10.4-120.4-22.4v44.8c0,11.9,54.2,22.4,120.4,22.4
			s120.4-10.4,120.4-22.4v-44.8C608.6,215.1,554.5,225.5,488.2,225.5z"/>
		<path id="XMLID_25_" class="st1" d="M488.2,285.2c-66.2,0-120.4-10.4-120.4-22.4v44.8c0,11.9,54.2,22.4,120.4,22.4
			s120.4-10.4,120.4-22.4v-44.8C608.6,274.7,554.5,285.2,488.2,285.2z"/>
		<path id="XMLID_24_" class="st1" d="M488.2,344.9c-66.2,0-120.4-10.4-120.4-22.4v44.8c0,11.9,54.2,22.4,120.4,22.4
			s120.4-10.4,120.4-22.4v-44.8C608.6,334.4,554.5,344.9,488.2,344.9z"/>
	</g>
	<g id="XMLID_18_">
		<path id="XMLID_22_" class="st2" d="M615.1,194.6c0,12.4-53.9,22.4-120.4,22.4s-120.4-10-120.4-22.4s53.9-22.4,120.4-22.4
			S615.1,182.2,615.1,194.6z"/>
		<path id="XMLID_21_" class="st2" d="M494.7,231.9c-66.2,0-120.4-10.4-120.4-22.4v44.8c0,11.9,54.2,22.4,120.4,22.4
			s120.4-10.4,120.4-22.4v-44.8C615.1,221.4,560.9,231.9,494.7,231.9z"/>
		<path id="XMLID_20_" class="st2" d="M494.7,291.6c-66.2,0-120.4-10.4-120.4-22.4v44.8c0,11.9,54.2,22.4,120.4,22.4
			s120.4-10.4,120.4-22.4v-44.8C615.1,281.1,560.9,291.6,494.7,291.6z"/>
		<path id="XMLID_19_" class="st2" d="M494.7,351.2c-66.2,0-120.4-10.4-120.4-22.4v44.8c0,11.9,54.2,22.4,120.4,22.4
			s120.4-10.4,120.4-22.4v-44.8C615.1,340.8,560.9,351.2,494.7,351.2z"/>
	</g>
</g>
</svg>
