<?xml version="1.0" encoding="utf-8"?>
<!-- Generator: Adobe Illustrator 19.0.0, SVG Export Plug-In . SVG Version: 6.00 Build 0)  -->
<svg version="1.1" id="Layer_1" xmlns="http://www.w3.org/2000/svg" xmlns:xlink="http://www.w3.org/1999/xlink" x="0px" y="0px"
	 viewBox="0 0 960 560" style="enable-background:new 0 0 960 560;" xml:space="preserve">
<style type="text/css">
	.st0{fill:#068894;}
	.st1{fill:#E6E6E6;}
	.st2{fill:#FFFFFF;}
</style>
<g id="XMLID_57_">
	<circle id="XMLID_42_" class="st0" cx="498.2" cy="278.3" r="254.5"/>
	<g id="XMLID_31_">
		<g id="XMLID_36_">
			<polygon id="XMLID_39_" class="st1" points="608.1,220.3 493.9,157.3 379.6,220.3 493.9,283.8 			"/>
			<polygon id="XMLID_38_" class="st1" points="493.9,294.7 416.8,251.9 379.6,272.4 493.9,335.9 608.1,272.4 570.9,251.9 			"/>
			<polygon id="XMLID_37_" class="st1" points="493.9,346.8 416.8,304 379.6,324.6 493.9,388 608.1,324.6 570.9,304 			"/>
		</g>
		<g id="XMLID_32_">
			<polygon id="XMLID_35_" class="st2" points="612.2,222 497.9,158.9 383.6,222 497.9,285.4 			"/>
			<polygon id="XMLID_34_" class="st2" points="497.9,296.3 420.9,253.6 383.6,274.1 497.9,337.5 612.2,274.1 574.9,253.6 			"/>
			<polygon id="XMLID_33_" class="st2" points="497.9,348.4 420.9,305.7 383.6,326.2 497.9,389.6 612.2,326.2 574.9,305.7 			"/>
		</g>
	</g>
</g>
</svg>
