<?xml version="1.0" encoding="utf-8"?>
<!-- Generator: Adobe Illustrator 19.0.0, SVG Export Plug-In . SVG Version: 6.00 Build 0)  -->
<svg version="1.1" id="Layer_1" xmlns="http://www.w3.org/2000/svg" xmlns:xlink="http://www.w3.org/1999/xlink" x="0px" y="0px"
	 viewBox="0 0 960 560" style="enable-background:new 0 0 960 560;" xml:space="preserve">
<style type="text/css">
	.st0{fill:#068894;}
	.st1{fill:#CCCCCC;}
	.st2{fill:#FFFFFF;}
</style>
<circle id="XMLID_7_" class="st0" cx="495.9" cy="298.1" r="250.7"/>
<path id="XMLID_13_" class="st1" d="M538.7,326.3l-115-14.1l-21.3,61.4c-5,11.6-7.5,20.3-7.5,26.1c0,4.6,2.2,8.6,6.5,12
	c4.3,3.5,13.7,5.7,28.2,6.7v8.2h-94.3v-8.2c12.5-2.2,20.6-5.1,24.3-8.6c7.5-7.1,15.8-21.4,25-43.1l105.4-246.6h7.7l104.3,249.2
	c8.4,20,16,33,22.9,39c6.8,6,16.4,9.3,28.6,10.1v8.2H535.1v-8.2c11.9-0.6,20-2.6,24.2-6c4.2-3.4,6.3-7.5,6.3-12.4 M532.5,310
	l-50.8-121.1L429.5,310H532.5z M499.4,128.4l40.2,95.5l-7.5,3.2c-10.2-17.3-20.7-30.1-31.5-38.3c-10.9-8.2-23.5-13-37.9-14.5
	c-14.4-1.5-27.8,0.4-40.3,5.7c-14.1,5.9-24,15.2-29.6,27.7c-5.6,12.5-6.1,24.3-1.5,35.3c3.5,8.4,9.7,14.9,18.4,19.3
	c12.7,6.6,38.4,11.8,77.2,15.5c31.6,3,53.7,6.2,66.3,9.6c12.5,3.4,23.5,9.1,32.8,17c9.3,7.9,16.3,17.4,20.9,28.4
	c8.8,20.9,8.3,42.3-1.6,64.3c-9.9,22-27.6,38.3-53.1,49c-8,3.4-15.8,5.9-23.4,7.7c-4.5,1.1-14.3,2.3-29.3,3.6
	c-15,1.3-24.3,2.7-27.8,4.2c-3.4,1.4-5.6,3.6-6.8,6.4c-1.1,2.9-0.8,7.7,0.9,14.5l-7.5,3.2l-39.8-94.7l7.5-3.2
	c11.9,18.3,22.9,31.2,33,38.5c10.1,7.3,22.7,11.7,37.7,13c15,1.4,29.9-1.1,44.5-7.2c17-7.1,28.5-17.3,34.6-30.4
	c6.1-13.1,6.5-25.8,1.4-38c-2.9-6.8-7.6-12.9-14.2-18.2c-6.6-5.4-15.2-9.4-25.5-12c-7-1.8-25.1-4.4-54.3-7.7
	c-23.6-2.7-42-5.5-55.2-8.4c-3.1-0.7-5.9-1.4-8.5-2.1c-13.3-3.7-24.5-9.2-33.7-16.5c-9.2-7.3-16.1-16.7-20.9-28.1
	c-8.3-19.8-7.9-40.1,1.3-60.8c9.2-20.7,25.5-36,49-45.9c14.7-6.2,31.7-9.1,51.2-8.8c9,0.2,15.1-0.4,18.2-1.7c3.5-1.5,6-3.7,7.3-6.8
	c1.4-3,1.4-8,0-15L499.4,128.4z"/>
<path id="XMLID_1_" class="st2" d="M540.5,320.8l-115-14.1L404.2,368c-5,11.6-7.5,20.3-7.5,26.1c0,4.6,2.2,8.6,6.5,12
	c4.3,3.5,13.7,5.7,28.2,6.7v8.2h-94.3v-8.2c12.5-2.2,20.6-5.1,24.3-8.6c7.5-7.1,15.8-21.4,25-43.1l105.4-246.6h7.7l104.3,249.2
	c8.4,20,16,33,22.9,39c6.8,6,16.4,9.3,28.6,10.1v8.2H537v-8.2c11.9-0.6,20-2.6,24.2-6c4.2-3.4,6.3-7.5,6.3-12.4 M534.4,304.4
	l-50.8-121.1l-52.1,121.1H534.4z M501.2,122.8l40.2,95.5l-7.5,3.2c-10.2-17.3-20.7-30.1-31.5-38.3c-10.9-8.2-23.5-13-37.9-14.5
	c-14.4-1.5-27.8,0.4-40.3,5.7c-14.1,5.9-24,15.2-29.6,27.7c-5.6,12.5-6.1,24.3-1.5,35.3c3.5,8.4,9.7,14.9,18.4,19.3
	c12.7,6.6,38.4,11.8,77.2,15.5c31.6,3,53.7,6.2,66.3,9.6c12.5,3.4,23.5,9.1,32.8,17c9.3,7.9,16.3,17.4,20.9,28.4
	c8.8,20.9,8.3,42.3-1.6,64.3c-9.9,22-27.6,38.3-53.1,49c-8,3.4-15.8,5.9-23.4,7.7c-4.5,1.1-14.3,2.3-29.3,3.6
	c-15,1.3-24.3,2.7-27.8,4.2c-3.4,1.4-5.6,3.6-6.8,6.4c-1.1,2.9-0.8,7.7,0.9,14.5l-7.5,3.2l-39.8-94.7l7.5-3.2
	c11.9,18.3,22.9,31.2,33,38.5c10.1,7.3,22.7,11.7,37.7,13c15,1.4,29.9-1.1,44.5-7.2c17-7.1,28.5-17.3,34.6-30.4
	c6.1-13.1,6.5-25.8,1.4-38c-2.9-6.8-7.6-12.9-14.2-18.2c-6.6-5.4-15.2-9.4-25.5-12c-7-1.8-25.1-4.4-54.3-7.7
	c-23.6-2.7-42-5.5-55.2-8.4c-3.1-0.7-5.9-1.4-8.5-2.1c-13.3-3.7-24.5-9.2-33.7-16.5c-9.2-7.3-16.1-16.7-20.9-28.1
	c-8.3-19.8-7.9-40.1,1.3-60.8c9.2-20.7,25.5-36,49-45.9c14.7-6.2,31.7-9.1,51.2-8.8c9,0.2,15.1-0.4,18.2-1.7c3.5-1.5,6-3.7,7.3-6.8
	c1.4-3,1.4-8,0-15L501.2,122.8z"/>
</svg>
