<?xml version="1.0" encoding="utf-8"?>
<!-- Generator: Adobe Illustrator 19.0.0, SVG Export Plug-In . SVG Version: 6.00 Build 0)  -->
<svg version="1.1" id="Layer_1" xmlns="http://www.w3.org/2000/svg" xmlns:xlink="http://www.w3.org/1999/xlink" x="0px" y="0px"
	 viewBox="0 0 960 560" style="enable-background:new 0 0 960 560;" xml:space="preserve">
<style type="text/css">
	.st0{fill:#068894;}
	.st1{fill:#E6E6E6;}
	.st2{fill:#FFFFFF;}
</style>
<circle id="XMLID_47_" class="st0" cx="497.7" cy="276" r="255.6"/>
<g id="XMLID_1_">
	<path id="XMLID_12_" class="st1" d="M607.6,319.8c-22.7,0-42.9,7.6-55.9,19.4l-108.4-42.7c2.5-5.1,3.9-10.7,3.9-16.4
		c0-5.8-1.4-11.3-4-16.5L551.6,221c12.9,11.8,33.2,19.5,55.9,19.5c38.8,0,70.5-22.3,70.5-49.7s-31.6-49.7-70.5-49.7
		c-38.9,0-70.5,22.3-70.5,49.7c0,5.8,1.4,11.3,4,16.5l-108.2,42.6c-12.9-11.9-33.2-19.5-55.9-19.5c-38.8,0-70.5,22.3-70.5,49.7
		s31.7,49.7,70.6,49.7c22.8,0,43.1-7.7,56-19.6l108.3,42.7c-2.6,5.2-4.1,10.8-4.1,16.6c0,27.4,31.6,49.7,70.5,49.7
		c38.9,0,70.5-22.3,70.5-49.7S646.5,319.8,607.6,319.8z M607.6,156.8c26.7,0,48.4,15.3,48.4,34.1S634.3,225,607.6,225
		s-48.4-15.3-48.4-34.1S581,156.8,607.6,156.8z M376.9,314.2c-26.7,0-48.4-15.3-48.4-34.1s21.7-34.1,48.4-34.1
		c26.7,0,48.4,15.3,48.4,34.1S403.5,314.2,376.9,314.2z M607.6,403.5c-26.7,0-48.4-15.3-48.4-34.1s21.7-34.1,48.4-34.1
		s48.4,15.3,48.4,34.1S634.3,403.5,607.6,403.5z"/>
	<g id="XMLID_3_">
		<path id="XMLID_7_" class="st2" d="M618.9,323.3c-22.7,0-42.9,7.6-55.9,19.4l-108.4-42.7c2.5-5.1,3.9-10.7,3.9-16.4
			c0-5.8-1.4-11.3-4-16.5l108.3-42.6c12.9,11.8,33.2,19.5,55.9,19.5c38.8,0,70.5-22.3,70.5-49.7s-31.6-49.7-70.5-49.7
			s-70.5,22.3-70.5,49.7c0,5.8,1.4,11.3,4,16.5l-108.2,42.6c-12.9-11.9-33.2-19.5-55.9-19.5c-38.8,0-70.5,22.3-70.5,49.7
			c0,27.4,31.7,49.7,70.6,49.7c22.8,0,43.1-7.7,56-19.6l108.3,42.7c-2.6,5.2-4.1,10.8-4.1,16.6c0,27.4,31.6,49.7,70.5,49.7
			c38.9,0,70.5-22.3,70.5-49.7C689.5,345.6,657.8,323.3,618.9,323.3z M618.9,160.4c26.7,0,48.4,15.3,48.4,34.1s-21.7,34.1-48.4,34.1
			s-48.4-15.3-48.4-34.1S592.3,160.4,618.9,160.4z M388.2,317.8c-26.7,0-48.4-15.3-48.4-34.1s21.7-34.1,48.4-34.1
			s48.4,15.3,48.4,34.1S414.8,317.8,388.2,317.8z M618.9,407.1c-26.7,0-48.4-15.3-48.4-34.1s21.7-34.1,48.4-34.1
			s48.4,15.3,48.4,34.1S645.6,407.1,618.9,407.1z"/>
	</g>
</g>
</svg>
