<?xml version="1.0" encoding="utf-8"?>
<!-- Generator: Adobe Illustrator 19.0.0, SVG Export Plug-In . SVG Version: 6.00 Build 0)  -->
<svg version="1.1" id="Layer_1" xmlns="http://www.w3.org/2000/svg" xmlns:xlink="http://www.w3.org/1999/xlink" x="0px" y="0px"
	 viewBox="0 0 960 560" style="enable-background:new 0 0 960 560;" xml:space="preserve">
<style type="text/css">
	.st0{fill:#068894;}
	.st1{fill:#E6E6E6;}
	.st2{fill:#FFFFFF;}
</style>
<circle id="XMLID_43_" class="st0" cx="493.2" cy="262.1" r="256.5"/>
<g id="XMLID_17_">
	<path id="XMLID_54_" class="st1" d="M387.2,188.4c3.6,18,7.3,22.2,7.3,40.2c0,11.1-27.3,20.8-27.3,20.8v13.9
		c0,0,27.3,9.7,27.3,20.8c0,18-3.6,22.2-7.3,40.2c-5.5,29.1,14.6,43,32.8,43s38.2,0,38.2,0v-27.7c0,0-32.8,2.8-32.8-13.9
		c0-12.5,3.6-12.5,7.3-40.2c1.8-12.5-9.1-22.2-20-29.1c10.9-6.9,21.9-15.2,20-27.7c-5.5-27.7-7.3-27.7-7.3-40.2
		c0-16.6,32.8-15.2,32.8-15.2v-27.7c0,0-18.2,0-38.2,0C399.9,145.5,381.7,159.3,387.2,188.4z"/>
	<path id="XMLID_53_" class="st1" d="M602.1,188.4c-3.6,18-7.3,22.2-7.3,40.2c0,11.1,27.3,20.8,27.3,20.8v13.9
		c0,0-27.3,9.7-27.3,20.8c0,18,3.6,22.2,7.3,40.2c5.5,29.1-14.6,43-32.8,43s-38.2,0-38.2,0v-27.7c0,0,32.8,2.8,32.8-13.9
		c0-12.5-3.6-12.5-7.3-40.2c-1.8-12.5,9.1-22.2,20-29.1c-10.9-6.9-21.9-15.2-20-27.7c3.6-27.7,7.3-27.7,7.3-40.2
		c0-16.6-32.8-15.2-32.8-15.2v-27.7c0,0,18.2,0,38.2,0S607.5,159.3,602.1,188.4z"/>
</g>
<g id="XMLID_29_">
	<path id="XMLID_58_" class="st2" d="M393.5,191.6c3.6,18,7.3,22.2,7.3,40.2c0,11.1-27.3,20.8-27.3,20.8v13.9
		c0,0,27.3,9.7,27.3,20.8c0,18-3.6,22.2-7.3,40.2c-5.5,29.1,14.6,43,32.8,43s38.2,0,38.2,0v-27.7c0,0-32.8,2.8-32.8-13.9
		c0-12.5,3.6-12.5,7.3-40.2c1.8-12.5-9.1-22.2-20-29.1c10.9-6.9,21.9-15.2,20-27.7c-5.5-27.7-7.3-27.7-7.3-40.2
		c0-16.6,32.8-15.2,32.8-15.2v-27.7c0,0-18.2,0-38.2,0S388.1,162.5,393.5,191.6z"/>
	<path id="XMLID_30_" class="st2" d="M608.4,191.6c-3.6,18-7.3,22.2-7.3,40.2c0,11.1,27.3,20.8,27.3,20.8v13.9
		c0,0-27.3,9.7-27.3,20.8c0,18,3.6,22.2,7.3,40.2c5.5,29.1-14.6,43-32.8,43s-38.2,0-38.2,0v-27.7c0,0,32.8,2.8,32.8-13.9
		c0-12.5-3.6-12.5-7.3-40.2c-1.8-12.5,9.1-22.2,20-29.1c-10.9-6.9-21.9-15.2-20-27.7c3.6-27.7,7.3-27.7,7.3-40.2
		c0-16.6-32.8-15.2-32.8-15.2v-27.7c0,0,18.2,0,38.2,0S613.9,162.5,608.4,191.6z"/>
</g>
</svg>
